<svg width="280" height="50" viewBox="0 0 280 50" fill="none" xmlns="http://www.w3.org/2000/svg">
<rect width="280" height="50" rx="5" fill="#FEE102"/>
<path d="M86.1719 19.3945H87.4902V24.6387H87.6221L92.3389 19.3945H94.0674L89.6289 24.1846L94.0674 30H92.4561L88.8086 25.0928L87.4902 26.5869V30H86.1719V19.3945ZM94.9463 27.7441C94.9463 26.9189 95.2271 26.3379 95.7886 26.001C96.355 25.6641 97.0703 25.4639 97.9346 25.4004C98.2666 25.376 98.6377 25.354 99.0479 25.3345C99.4629 25.3101 99.8096 25.293 100.088 25.2832V24.6387C100.088 24.126 99.9341 23.7329 99.6265 23.4595C99.3237 23.1812 98.877 23.042 98.2861 23.042C97.8027 23.042 97.4072 23.1421 97.0996 23.3423C96.792 23.5376 96.5918 23.7939 96.499 24.1113H95.1807C95.2344 23.6865 95.4004 23.3105 95.6787 22.9834C95.957 22.6562 96.3257 22.4023 96.7847 22.2217C97.2485 22.0361 97.7686 21.9434 98.3447 21.9434C99.1064 21.9434 99.7949 22.1387 100.41 22.5293C101.025 22.915 101.333 23.6572 101.333 24.7559V30H100.088V28.916H100.029C99.9316 29.1211 99.7803 29.3213 99.5752 29.5166C99.375 29.707 99.1113 29.8682 98.7842 30C98.4619 30.127 98.0859 30.1904 97.6562 30.1904C97.1484 30.1904 96.6895 30.0928 96.2793 29.8975C95.8691 29.7021 95.5444 29.4214 95.3052 29.0552C95.0659 28.6841 94.9463 28.2471 94.9463 27.7441ZM96.2061 27.8027C96.2061 28.208 96.3574 28.5205 96.6602 28.7402C96.9678 28.9551 97.373 29.0625 97.876 29.0625C98.3301 29.0625 98.7231 28.9722 99.0552 28.7915C99.3921 28.6108 99.6484 28.3716 99.8242 28.0737C100 27.7759 100.088 27.4561 100.088 27.1143V26.3159L98.0811 26.4551C97.4854 26.4941 97.0239 26.6235 96.6968 26.8433C96.3696 27.063 96.2061 27.3828 96.2061 27.8027ZM103.354 19.3945H104.614V25.5615H104.761L108.203 22.0459H109.756L106.401 25.4517L110.005 30H108.408L105.457 26.25L104.614 27.0337V30H103.354V19.3945ZM110.723 27.7441C110.723 26.9189 111.003 26.3379 111.565 26.001C112.131 25.6641 112.847 25.4639 113.711 25.4004C114.043 25.376 114.414 25.354 114.824 25.3345C115.239 25.3101 115.586 25.293 115.864 25.2832V24.6387C115.864 24.126 115.71 23.7329 115.403 23.4595C115.1 23.1812 114.653 23.042 114.062 23.042C113.579 23.042 113.184 23.1421 112.876 23.3423C112.568 23.5376 112.368 23.7939 112.275 24.1113H110.957C111.011 23.6865 111.177 23.3105 111.455 22.9834C111.733 22.6562 112.102 22.4023 112.561 22.2217C113.025 22.0361 113.545 21.9434 114.121 21.9434C114.883 21.9434 115.571 22.1387 116.187 22.5293C116.802 22.915 117.109 23.6572 117.109 24.7559V30H115.864V28.916H115.806C115.708 29.1211 115.557 29.3213 115.352 29.5166C115.151 29.707 114.888 29.8682 114.561 30C114.238 30.127 113.862 30.1904 113.433 30.1904C112.925 30.1904 112.466 30.0928 112.056 29.8975C111.646 29.7021 111.321 29.4214 111.082 29.0552C110.842 28.6841 110.723 28.2471 110.723 27.7441ZM111.982 27.8027C111.982 28.208 112.134 28.5205 112.437 28.7402C112.744 28.9551 113.149 29.0625 113.652 29.0625C114.106 29.0625 114.5 28.9722 114.832 28.7915C115.168 28.6108 115.425 28.3716 115.601 28.0737C115.776 27.7759 115.864 27.4561 115.864 27.1143V26.3159L113.857 26.4551C113.262 26.4941 112.8 26.6235 112.473 26.8433C112.146 27.063 111.982 27.3828 111.982 27.8027ZM122.383 30.1611C121.665 30.1611 121.03 29.9927 120.479 29.6558C119.932 29.314 119.507 28.833 119.204 28.2129C118.901 27.5928 118.75 26.875 118.75 26.0596C118.75 25.2441 118.901 24.5264 119.204 23.9062C119.507 23.2812 119.932 22.7979 120.479 22.4561C121.03 22.1143 121.665 21.9434 122.383 21.9434C123.096 21.9434 123.723 22.1143 124.265 22.4561C124.812 22.7979 125.234 23.2812 125.532 23.9062C125.835 24.5264 125.986 25.2441 125.986 26.0596C125.986 26.875 125.835 27.5928 125.532 28.2129C125.234 28.833 124.812 29.314 124.265 29.6558C123.723 29.9927 123.096 30.1611 122.383 30.1611ZM122.383 29.0479C122.896 29.0479 123.328 28.9136 123.679 28.645C124.031 28.3716 124.292 28.0103 124.463 27.561C124.639 27.1069 124.727 26.6064 124.727 26.0596C124.727 25.5127 124.639 25.0122 124.463 24.5581C124.292 24.104 124.031 23.7402 123.679 23.4668C123.328 23.1934 122.896 23.0566 122.383 23.0566C121.86 23.0566 121.421 23.1934 121.064 23.4668C120.713 23.7402 120.449 24.104 120.273 24.5581C120.098 25.0122 120.01 25.5127 120.01 26.0596C120.01 26.6064 120.098 27.1069 120.273 27.561C120.449 28.0103 120.713 28.3716 121.064 28.645C121.421 28.9136 121.86 29.0479 122.383 29.0479ZM139.082 29.5752H127.158V28.6084H132.52V26.1475H128.652V22.1338H136.445V20.083H128.623V19.1309H137.573V23.0713H129.795V25.1953H137.881V26.1475H133.647V28.6084H139.082V29.5752ZM148.516 21.665C148.511 22.4365 148.667 23.2031 148.984 23.9648C149.302 24.7217 149.731 25.3955 150.273 25.9863C150.815 26.5771 151.406 27.0166 152.046 27.3047L151.343 28.2129C150.601 27.8467 149.927 27.3022 149.321 26.5796C148.721 25.8521 148.267 25.0269 147.959 24.104C147.656 25.0854 147.202 25.9644 146.597 26.7407C145.991 27.5122 145.308 28.0908 144.546 28.4766L143.813 27.5098C144.453 27.2119 145.044 26.7603 145.586 26.1548C146.128 25.5444 146.56 24.8462 146.882 24.0601C147.205 23.269 147.368 22.4707 147.373 21.665V19.292H148.516V21.665ZM154.624 31.2158H153.467V18.1641H154.624V31.2158ZM161.26 20.5811C161.26 21.1523 161.392 21.7017 161.655 22.229C161.924 22.7515 162.3 23.2153 162.783 23.6206C163.267 24.0259 163.828 24.3408 164.468 24.5654L163.882 25.459C163.145 25.1953 162.5 24.8096 161.948 24.3018C161.396 23.7891 160.981 23.1958 160.703 22.522C160.425 23.2544 160 23.8989 159.429 24.4556C158.857 25.0073 158.188 25.4248 157.422 25.708L156.807 24.8145C157.451 24.585 158.025 24.2554 158.528 23.8257C159.031 23.396 159.421 22.9004 159.7 22.3389C159.983 21.7773 160.127 21.1914 160.132 20.5811V20.0244H157.158V19.0869H164.189V20.0244H161.26V20.5811ZM167.031 21.6064H168.994V22.5879H167.031V26.0156H165.889V18.1641H167.031V21.6064ZM167.031 31.1865H165.889V27.6416H158.506V26.7041H167.031V31.1865ZM179.893 23.54H182.075V24.4922H179.893V31.1865H178.75V18.1641H179.893V23.54ZM177.49 21.2109H169.741V20.2588H173.096V18.3252H174.238V20.2588H177.49V21.2109ZM173.682 22.2949C174.292 22.2949 174.839 22.4219 175.322 22.6758C175.806 22.9297 176.184 23.2837 176.458 23.7378C176.731 24.1919 176.87 24.707 176.875 25.2832C176.87 25.8594 176.731 26.3745 176.458 26.8286C176.184 27.2827 175.806 27.6367 175.322 27.8906C174.839 28.1445 174.292 28.2715 173.682 28.2715C173.066 28.2715 172.515 28.1445 172.026 27.8906C171.543 27.6367 171.165 27.2827 170.891 26.8286C170.618 26.3745 170.483 25.8594 170.488 25.2832C170.483 24.707 170.618 24.1919 170.891 23.7378C171.165 23.2837 171.543 22.9297 172.026 22.6758C172.515 22.4219 173.066 22.2949 173.682 22.2949ZM173.682 23.2617C173.281 23.2617 172.92 23.3496 172.598 23.5254C172.28 23.6963 172.031 23.9355 171.851 24.2432C171.67 24.5508 171.582 24.8975 171.587 25.2832C171.582 25.6738 171.67 26.0229 171.851 26.3306C172.031 26.6333 172.28 26.8701 172.598 27.041C172.92 27.2119 173.281 27.2949 173.682 27.29C174.077 27.2949 174.434 27.2119 174.751 27.041C175.068 26.8701 175.317 26.6333 175.498 26.3306C175.679 26.0229 175.771 25.6738 175.776 25.2832C175.771 24.8975 175.679 24.5508 175.498 24.2432C175.317 23.9355 175.068 23.6963 174.751 23.5254C174.434 23.3496 174.077 23.2617 173.682 23.2617ZM193.545 31.1865H192.388V18.1641H193.545V31.1865ZM189.692 19.585C189.683 21.5527 189.185 23.3203 188.198 24.8877C187.212 26.4502 185.669 27.7344 183.569 28.7402L182.939 27.8027C184.678 26.9775 186.008 25.9521 186.931 24.7266C187.859 23.501 188.389 22.0996 188.521 20.5225H183.54V19.585H189.692Z" fill="black"/>
<path fill-rule="evenodd" clip-rule="evenodd" d="M35.5 34.8197C43.5081 34.8197 50 29.7113 50 23.4098C50 17.1084 43.5081 12 35.5 12C27.4919 12 21 17.1084 21 23.4098C21 27.5319 23.778 31.1435 27.9411 33.1486L26.8127 37.3399C26.6927 37.7854 27.1889 38.1418 27.5728 37.8859L32.5312 34.5803C33.4895 34.7372 34.4825 34.8197 35.5 34.8197Z" fill="#391B1B"/>
</svg>
