<svg width="1392" height="1244" viewBox="0 0 1392 1244" fill="none" xmlns="http://www.w3.org/2000/svg">
<path d="M542.624 18.6809C572.381 -6.97159 617.238 -6.34044 646.238 21.4142C677.155 51.0261 678.325 100.265 648.881 131.357L257.762 544.25H1314.67L1322.6 544.63C1361.58 548.628 1392 581.756 1392 622C1392 662.244 1361.58 695.372 1322.6 699.37L1314.67 699.75H257.762L648.881 1112.64L654.092 1118.64C678.106 1149.77 675.222 1194.83 646.238 1222.59C617.238 1250.34 572.381 1250.97 542.624 1225.32L536.885 1219.85L21.308 675.605C-7.10266 645.585 -7.10269 598.415 21.308 568.395L536.885 24.1476L542.624 18.6809Z" fill="black"/>
</svg>
