<svg width="24" height="24" viewBox="0 0 24 24" fill="none" xmlns="http://www.w3.org/2000/svg">
<path fill-rule="evenodd" clip-rule="evenodd" d="M3.8065 6.20562C4.70663 5.30576 5.92731 4.80024 7.2001 4.80024C8.47288 4.80024 9.69356 5.30576 10.5937 6.20562L12.0001 7.61082L13.4065 6.20562C13.8493 5.74717 14.3789 5.38149 14.9646 5.12993C15.5502 4.87837 16.18 4.74595 16.8174 4.74042C17.4547 4.73488 18.0868 4.85633 18.6767 5.09767C19.2666 5.33902 19.8025 5.69544 20.2532 6.14612C20.7039 6.59681 21.0603 7.13274 21.3016 7.72264C21.543 8.31254 21.6644 8.9446 21.6589 9.58194C21.6534 10.2193 21.5209 10.8491 21.2694 11.4348C21.0178 12.0204 20.6521 12.55 20.1937 12.9928L12.0001 21.1876L3.8065 12.9928C2.90664 12.0927 2.40112 10.872 2.40112 9.59922C2.40112 8.32643 2.90664 7.10575 3.8065 6.20562V6.20562Z" fill="#FA9799" stroke="#FA9799" stroke-linejoin="round"/>
</svg>
