<svg width="581" height="314" viewBox="0 0 581 314" fill="none" xmlns="http://www.w3.org/2000/svg">
<path d="M26.68 233.32V166.04H62.76V233.32H26.68ZM51.96 175.56H37.56V223.8H51.96V175.56ZM84.36 193.88H95.4V203.32H84.36V238.2H73.4V164.76H84.36V193.88Z" fill="#5D56F1"/>
<path d="M104.517 179.24C104.517 175 106.197 171.96 109.077 169.8C114.437 165.88 123.637 164.76 134.277 164.76C144.917 164.76 154.117 165.88 159.477 169.8C162.357 171.96 164.037 175 164.037 179.24C164.037 183.4 162.357 186.52 159.477 188.6C154.117 192.6 144.917 193.72 134.277 193.72C123.637 193.72 114.437 192.6 109.077 188.6C106.197 186.52 104.517 183.4 104.517 179.24ZM115.477 179.24C115.477 180.36 115.957 181.24 116.997 181.96C119.797 183.96 126.117 184.44 134.277 184.44C142.437 184.44 148.757 183.96 151.557 181.96C152.597 181.24 153.077 180.36 153.077 179.24C153.077 178.12 152.597 177.16 151.557 176.52C148.757 174.52 142.437 173.96 134.277 173.96C126.117 173.96 119.797 174.52 116.997 176.52C115.957 177.16 115.477 178.12 115.477 179.24ZM101.157 197.48H167.237V206.76H101.157V197.48ZM105.797 239V212.28H162.597V239H105.797ZM151.637 221.48H116.757V229.72H151.637V221.48Z" fill="#5D56F1"/>
<path d="M180.274 188.008C180.274 185.64 181.17 183.912 183.09 182.504C186.61 180.072 193.266 179.112 203.378 179.112C213.49 179.112 220.146 180.072 223.602 182.504C225.522 183.912 226.482 185.64 226.482 188.008C226.482 190.248 225.522 192.04 223.602 193.384C220.146 195.88 213.49 196.904 203.378 196.904C193.266 196.904 186.61 195.88 183.09 193.384C181.17 192.04 180.274 190.248 180.274 188.008ZM185.458 188.008C185.458 189.032 185.906 189.864 186.93 190.504C189.298 192.04 194.61 192.616 203.378 192.616C212.146 192.616 217.458 192.04 219.826 190.504C220.85 189.864 221.298 189.032 221.298 188.008C221.298 186.984 220.85 186.088 219.826 185.384C217.458 183.912 212.146 183.272 203.378 183.272C194.61 183.272 189.298 183.912 186.93 185.384C185.906 186.088 185.458 186.984 185.458 188.008ZM177.522 206.76V202.408H229.106V206.76H177.522ZM186.546 227.112V232.872H226.61V237.032H181.426V222.888H220.082V217.064H181.426V212.904H225.202V227.112H186.546Z" fill="#5D56F1"/>
<path d="M281.776 192.232V184.616H260.016V180.136H286.896V191.72C286.896 213.416 278.448 227.816 259.632 232.808V228.008C274.544 223.528 281.776 211.048 281.776 192.232ZM305.456 179.112V236.328H300.272V179.112H305.456Z" fill="#5D56F1"/>
<path d="M328.046 194.344V200.552H367.086V204.776H347.31V211.496H370.606V215.848H319.022V211.496H342.126V204.776H322.926V190.184H361.582V184.04H322.926V179.752H366.702V194.344H328.046ZM361.582 237.352V226.344H322.478V222.056H366.702V237.352H361.582Z" fill="#5D56F1"/>
<path d="M393.707 177.32H398.827V186.152H412.779V190.632H379.883V186.152H393.707V177.32ZM387.499 214.952C387.499 220.584 388.587 224.68 390.891 226.984C392.363 228.328 394.219 229.096 396.459 229.096C398.699 229.096 400.555 228.328 402.027 226.984C404.331 224.68 405.419 220.584 405.419 214.952C405.419 209.384 404.331 205.224 402.027 202.984C400.555 201.64 398.699 200.872 396.459 200.872C394.219 200.872 392.363 201.64 390.891 202.984C388.587 205.224 387.499 209.384 387.499 214.952ZM382.379 214.952C382.379 207.72 384.299 202.408 387.691 199.4C389.931 197.416 392.939 196.392 396.459 196.392C399.979 196.392 402.987 197.416 405.227 199.4C408.619 202.408 410.539 207.72 410.539 214.952C410.539 222.248 408.619 227.496 405.227 230.504C402.987 232.488 399.979 233.448 396.459 233.448C392.939 233.448 389.931 232.488 387.691 230.504C384.299 227.496 382.379 222.248 382.379 214.952ZM426.923 179.112V203.176H436.267V207.656H426.923V236.392H421.803V179.112H426.923Z" fill="#5D56F1"/>
<path d="M484.905 200.616V184.616H444.969V180.136H490.025V199.656C490.025 206.184 489.513 213.352 488.489 218.408H483.433C484.329 213.48 484.905 206.568 484.905 200.616ZM442.217 233.832V229.352H460.137V201.512H465.321V229.352H493.161V233.832H442.217Z" fill="#5D56F1"/>
<path d="M35.832 294.216C33.976 299.912 29.304 305.288 22.968 308.36V303.624C28.856 300.104 33.272 293.896 33.272 280.968V255.752H38.328V280.968C38.328 293.96 42.808 300.04 48.76 303.688V308.424C42.488 305.288 37.816 299.912 35.832 294.216ZM59.704 311.752H54.712V281.16H44.92V276.744H54.712V255.432H59.704V311.752ZM72.632 312.392H67.64V255.112H72.632V312.392Z" fill="#5D56F1"/>
<path d="M103.158 255.432V262.92C103.158 272.776 109.43 278.344 116.79 280.648V285.256C109.302 283.272 103.222 278.664 100.534 273.352C98.2935 278.792 92.2135 283.848 84.4055 285.96V281.288C91.8935 278.92 98.0375 272.52 98.0375 262.92V255.432H103.158ZM131.83 255.112V268.424H140.598V272.968H131.83V287.688H126.71V255.112H131.83ZM89.0775 301.96C89.0775 298.632 90.6775 296.008 93.3655 294.152C97.3335 291.336 103.67 289.992 111.222 289.992C118.774 289.992 125.11 291.336 129.014 294.152C131.702 296.008 133.302 298.632 133.302 301.96C133.302 305.288 131.702 307.912 129.014 309.832C125.11 312.584 118.774 313.8 111.222 313.8C103.67 313.8 97.3335 312.584 93.3655 309.832C90.6775 307.912 89.0775 305.288 89.0775 301.96ZM94.2615 301.96C94.2615 303.752 95.2215 305.352 97.0135 306.568C99.7655 308.488 104.758 309.384 111.222 309.384C117.622 309.384 122.614 308.488 125.494 306.568C127.222 305.352 128.118 303.752 128.118 301.96C128.118 300.104 127.222 298.504 125.494 297.352C122.614 295.432 117.622 294.472 111.222 294.472C104.758 294.472 99.7655 295.432 97.0135 297.352C95.2215 298.504 94.2615 300.104 94.2615 301.96Z" fill="#5D56F1"/>
<path d="M148.019 282.184C148.019 268.744 149.299 261.256 152.819 257.608C154.419 256.008 156.595 255.112 159.347 255.112C162.163 255.112 164.403 256.008 165.939 257.608C169.203 260.936 170.483 267.4 170.675 278.6H178.419V255.432H183.411V311.752H178.419V283.08H170.739C170.675 295.944 169.459 303.176 165.939 306.696C164.403 308.36 162.163 309.128 159.347 309.128C156.595 309.128 154.419 308.36 152.819 306.696C149.299 303.112 148.019 295.624 148.019 282.184ZM153.011 282.184C153.011 294.152 153.715 300.552 156.019 303.304C156.915 304.264 158.003 304.776 159.347 304.776C160.755 304.776 161.907 304.264 162.739 303.304C165.043 300.552 165.811 294.152 165.811 282.184C165.811 270.28 165.043 263.816 162.739 261.128C161.907 260.104 160.755 259.592 159.347 259.592C158.003 259.592 156.915 260.104 156.019 261.128C153.715 263.816 153.011 270.28 153.011 282.184ZM195.507 312.328H190.515V255.112H195.507V312.328Z" fill="#5D56F1"/>
<path d="M228.786 255.752H257.842V260.232H245.874V267.208C245.874 276.936 251.954 281.928 258.866 283.592V288.136C251.954 286.728 246.066 282.632 243.442 277.256C240.818 282.696 234.93 287.56 227.826 288.904V284.36C234.93 282.76 240.754 277.064 240.754 267.208V260.232H228.786V255.752ZM274.93 294.984H269.81V273.416H256.946V269H269.81V255.112H274.93V294.984ZM276.018 312.648H232.37V293.896H237.554V308.232H276.018V312.648Z" fill="#5D56F1"/>
<path d="M301.551 253.32H306.671V262.152H320.623V266.632H287.727V262.152H301.551V253.32ZM295.343 290.952C295.343 296.584 296.431 300.68 298.735 302.984C300.207 304.328 302.063 305.096 304.303 305.096C306.543 305.096 308.399 304.328 309.871 302.984C312.175 300.68 313.263 296.584 313.263 290.952C313.263 285.384 312.175 281.224 309.871 278.984C308.399 277.64 306.543 276.872 304.303 276.872C302.063 276.872 300.207 277.64 298.735 278.984C296.431 281.224 295.343 285.384 295.343 290.952ZM290.223 290.952C290.223 283.72 292.143 278.408 295.535 275.4C297.775 273.416 300.783 272.392 304.303 272.392C307.823 272.392 310.831 273.416 313.071 275.4C316.463 278.408 318.383 283.72 318.383 290.952C318.383 298.248 316.463 303.496 313.071 306.504C310.831 308.488 307.823 309.448 304.303 309.448C300.783 309.448 297.775 308.488 295.535 306.504C292.143 303.496 290.223 298.248 290.223 290.952ZM334.767 255.112V279.176H344.111V283.656H334.767V312.392H329.647V255.112H334.767Z" fill="#5D56F1"/>
<path d="M361.645 294.216C359.789 299.912 355.117 305.288 348.781 308.36V303.624C354.669 300.104 359.085 293.896 359.085 280.968V255.752H364.141V280.968C364.141 293.96 368.621 300.04 374.573 303.688V308.424C368.301 305.288 363.629 299.912 361.645 294.216ZM385.517 311.752H380.525V281.16H370.733V276.744H380.525V255.432H385.517V311.752ZM398.445 312.392H393.453V255.112H398.445V312.392Z" fill="#5D56F1"/>
<path d="M413.29 272.392C413.29 267.336 415.274 263.368 418.73 260.488C422.954 257.16 429.226 255.496 436.97 255.496C444.778 255.496 451.05 257.16 455.21 260.488C458.666 263.368 460.65 267.336 460.65 272.392C460.65 277.512 458.666 281.48 455.21 284.232C453.866 285.32 452.266 286.28 450.474 287.048V305.352H462.442V309.832H411.498V305.352H423.85V287.176C421.93 286.408 420.202 285.448 418.73 284.232C415.274 281.48 413.29 277.512 413.29 272.392ZM445.354 288.584C442.794 289.096 439.978 289.352 436.97 289.352C434.09 289.352 431.338 289.096 428.906 288.648V305.352H445.354V288.584ZM418.41 272.392C418.41 275.976 419.882 278.792 422.378 280.84C425.578 283.528 430.698 284.808 436.97 284.808C443.242 284.808 448.426 283.528 451.626 280.84C454.186 278.792 455.53 275.976 455.53 272.392C455.53 268.872 454.186 266.056 451.626 263.944C448.426 261.256 443.242 260.04 436.97 260.04C430.698 260.04 425.578 261.256 422.378 263.944C419.882 266.056 418.41 268.872 418.41 272.392Z" fill="#5D56F1"/>
<path d="M480.104 267.528L479.592 294.664H475.24L474.664 267.528V258.76H480.104V267.528ZM480.232 302.024V308.936H474.6V302.024H480.232Z" fill="#5D56F1"/>
<path d="M391.976 76.2643C391.976 70.5683 393.832 65.7043 397.096 62.8243C399.528 60.6483 403.112 59.4323 407.144 59.4323C411.24 59.4323 414.76 60.6483 417.32 62.8243C420.52 65.7043 422.376 70.5683 422.376 76.2643C422.376 82.0243 420.52 86.8243 417.32 89.7043C415.272 91.4963 412.648 92.5843 409.64 92.9683V108.584H418.024C423.72 108.584 428.52 107.304 431.272 104.936V59.1123H436.392V83.1763H445.736V87.6563H436.392V116.328H431.272V109.288C428.456 111.784 423.4 113.064 417.256 113.064H390.44V108.584H404.52V92.9043C401.576 92.5203 399.016 91.4323 397.096 89.7043C393.832 86.8243 391.976 82.0243 391.976 76.2643ZM397.096 76.2643C397.096 80.3603 398.184 83.9443 400.232 86.0563C401.96 87.7843 404.328 88.6803 407.144 88.6803C409.96 88.6803 412.456 87.7843 414.056 86.0563C416.168 83.9443 417.256 80.3603 417.256 76.2643C417.256 72.1683 416.168 68.5843 414.056 66.5363C412.456 64.8723 409.96 63.9763 407.144 63.9763C404.328 63.9763 401.96 64.8723 400.232 66.5363C398.184 68.5843 397.096 72.1683 397.096 76.2643Z" fill="#5D56F1"/>
<path d="M469.094 67.6243V63.4003H482.918V57.3203H487.974V63.4003H501.606V67.6243H469.094ZM475.878 82.0243C475.878 83.6243 476.518 84.9043 477.606 85.8643C479.334 87.4643 482.214 88.2323 485.35 88.2323C488.55 88.2323 491.43 87.4643 493.094 85.8643C494.182 84.9043 494.886 83.6243 494.886 82.0243C494.886 80.4243 494.182 79.1443 493.094 78.1843C491.43 76.6483 488.55 75.8163 485.35 75.8163C482.214 75.8163 479.334 76.6483 477.606 78.1843C476.518 79.1443 475.878 80.4243 475.878 82.0243ZM470.886 82.0243C470.886 79.0803 472.102 76.7123 474.214 74.9843C476.838 72.8723 480.806 71.7203 485.35 71.7203C489.958 71.7203 493.926 72.8723 496.55 74.9843C498.662 76.7123 499.878 79.0803 499.878 82.0243C499.878 84.9683 498.662 87.4003 496.55 89.0643C493.926 91.1763 489.958 92.3923 485.35 92.3923C480.806 92.3923 476.838 91.1763 474.214 89.0643C472.102 87.4003 470.886 84.9683 470.886 82.0243ZM516.454 59.1123V73.7683H525.222V78.2483H516.454V93.2883H511.334V59.1123H516.454ZM474.47 117.032V97.8963H516.454V117.032H474.47ZM511.334 102.376H479.59V112.616H511.334V102.376Z" fill="#5D56F1"/>
<path d="M580.708 116.328H575.716V59.1123H580.708V116.328ZM557.22 60.1363V82.3443H564.196V59.3683H569.124V115.752H564.196V86.8883H557.22V90.8563C557.22 104.104 553.188 111.528 544.676 114.792V110.056C549.412 107.368 552.292 101.8 552.292 90.6003V64.6163H544.74V87.4643C544.74 100.84 541.028 107.816 532.132 111.528V106.728C537.38 103.848 539.748 98.6643 539.748 87.1443L539.812 64.6163H532.58V60.1363H557.22Z" fill="#5D56F1"/>
<path d="M112.527 40.3823H42.6116V49.182H113.733V64.7322H24.1684V25.0732H94.2045V16.6351H24.1684V1.20545H112.527V40.3823ZM59.1262 89.0821H18.7439V73.4114H118.072V89.0821H77.4489V113.07H59.1262V89.0821Z" fill="#5D56F1"/>
<path d="M193.649 1.92871V104.03H137.957V1.92871H193.649ZM156.039 88.7205H175.447V17.3584H156.039V88.7205ZM209.681 0H228.004V111.262H209.681V0Z" fill="#5D56F1"/>
<path d="M301.049 104.03H253.072V1.20545H271.154V88.7205H303.942C312.862 88.7205 318.889 87.274 322.626 84.2604V0H340.949V43.5164H357.222V59.3077H340.949V111.262H322.626V98.9668C318.769 102.463 311.175 104.03 301.049 104.03Z" fill="#5D56F1"/>
<mask id="mask0_486_3887" style="mask-type:alpha" maskUnits="userSpaceOnUse" x="0" y="2" width="196" height="114">
<path d="M195.884 115.241L0 2.23047V115.241H195.884Z" fill="#9C97FA"/>
</mask>
<g mask="url(#mask0_486_3887)">
<path d="M112.527 40.3823H42.6116V49.182H113.733V64.7322H24.1684V25.0732H94.2045V16.6351H24.1684V1.20545H112.527V40.3823ZM59.1262 89.0821H18.7439V73.4114H118.072V89.0821H77.4489V113.07H59.1262V89.0821Z" fill="#9C97FA"/>
<path d="M193.649 1.92871V104.03H137.957V1.92871H193.649ZM156.039 88.7205H175.447V17.3584H156.039V88.7205ZM209.681 0H228.004V111.262H209.681V0Z" fill="#9C97FA"/>
<path d="M301.049 104.03H253.072V1.20545H271.154V88.7205H303.942C312.862 88.7205 318.889 87.274 322.626 84.2604V0H340.949V43.5164H357.222V59.3077H340.949V111.262H322.626V98.9668C318.769 102.463 311.175 104.03 301.049 104.03Z" fill="#9C97FA"/>
</g>
</svg>
