<svg width="24" height="24" viewBox="0 0 24 24" fill="none" xmlns="http://www.w3.org/2000/svg">
<path d="M4.11217 17.0694L3.27091 16.5287L3.27091 16.5287L4.11217 17.0694ZM5.34784 12.9278L4.34784 12.9174V12.9278H5.34784ZM5.37377 10.4238L6.37377 10.4341V10.4238H5.37377ZM20.8944 17.0895L21.7458 16.5648L21.7458 16.5648L20.8944 17.0895ZM19.7053 12.9278L18.7053 12.9169V12.9278H19.7053ZM19.7312 10.5479L20.7312 10.5588V10.5479H19.7312ZM9.66667 21C9.11438 21 8.66667 21.4477 8.66667 22C8.66667 22.5523 9.11438 23 9.66667 23V21ZM15.3333 23C15.8856 23 16.3333 22.5523 16.3333 22C16.3333 21.4477 15.8856 21 15.3333 21V23ZM4.95344 17.61C5.65923 16.5117 6.34784 14.8915 6.34784 12.9278H4.34784C4.34784 14.4203 3.82267 15.6702 3.27091 16.5287L4.95344 17.61ZM6.34778 12.9382L6.37372 10.4341L4.37383 10.4134L4.34789 12.9174L6.34778 12.9382ZM21.7458 16.5648C21.2163 15.7057 20.7053 14.4424 20.7053 12.9278H18.7053C18.7053 14.8931 19.3661 16.5156 20.0431 17.6141L21.7458 16.5648ZM20.7052 12.9387L20.7311 10.5588L18.7313 10.537L18.7053 12.9169L20.7052 12.9387ZM20.7312 10.5479C20.7312 5.43805 17.1962 1 12.5 1V3C15.7911 3 18.7312 6.21597 18.7312 10.5479H20.7312ZM20.4617 19.25C21.3033 19.25 21.7359 18.574 21.8825 18.167C22.0419 17.7244 22.0761 17.1008 21.7458 16.5648L20.0431 17.6141C20.0033 17.5495 20.0004 17.5033 20.0001 17.4973C19.9998 17.4905 20.0002 17.4911 20.0008 17.4894C20.0016 17.4871 20.0051 17.478 20.0141 17.4635C20.023 17.4494 20.0409 17.4242 20.0724 17.395C20.1394 17.3329 20.2745 17.25 20.4617 17.25V19.25ZM6.37377 10.4238C6.37377 6.16041 9.26685 3 12.5 3V1C7.86174 1 4.37377 5.3825 4.37377 10.4238H6.37377ZM4.53936 17.25C4.73051 17.25 4.86685 17.336 4.93256 17.3982C4.96345 17.4274 4.98056 17.4521 4.98869 17.4654C4.99703 17.479 4.99984 17.4869 5.00024 17.4881C5.00073 17.4895 5.00035 17.4886 5.00007 17.4867C4.99979 17.4847 5.00017 17.4856 4.99989 17.4903C4.99961 17.4951 4.99642 17.5431 4.95344 17.61L3.27091 16.5287C2.92465 17.0676 2.95655 17.7022 3.11209 18.1475C3.25428 18.5546 3.68453 19.25 4.53936 19.25V17.25ZM20.4617 17.25H4.53936V19.25H20.4617V17.25ZM9.66667 23H15.3333V21H9.66667V23Z" fill="#4F494B"/>
</svg>
