<svg width="2283" height="1778" viewBox="0 0 2283 1778" fill="none" xmlns="http://www.w3.org/2000/svg">
<path d="M2156.17 1524C2226.21 1524 2283 1580.86 2283 1651C2283 1721.14 2226.21 1778 2156.17 1778H126.833C56.7852 1778 0 1721.14 0 1651C0 1580.86 56.7852 1524 126.833 1524H2156.17Z" fill="black"/>
<path d="M2156.17 762C2226.21 762 2283 818.86 2283 889C2283 959.14 2226.21 1016 2156.17 1016H126.833C56.7852 1016 0 959.14 0 889C0 818.86 56.7852 762 126.833 762H2156.17Z" fill="black"/>
<path d="M2156.17 0C2226.21 0 2283 56.8598 2283 127C2283 197.14 2226.21 254 2156.17 254H126.833C56.7852 254 0 197.14 0 127C0 56.8598 56.7852 0 126.833 0H2156.17Z" fill="black"/>
</svg>
