<svg width="954" height="413" viewBox="0 0 954 413" fill="none" xmlns="http://www.w3.org/2000/svg">
<path d="M116.1 278.9C118.3 279.7 120.7 280.1 123.3 280.1C126.1 280.1 128.7 279.8 131.1 279.2C133.7 278.6 136 277.2 138 275C140.2 272.6 141.9 270.7 143.1 269.3C144.3 267.9 145.8 264.8 147.6 260C149.8 254.4 152.5 246.5 155.7 236.3C164.1 244.1 169.1 250 170.7 254C161.1 289.2 144.2 306.8 120 306.8C108.6 306.8 94.1 299.4 76.5 284.6C67.3 299.4 53 306.8 33.6 306.8C25 306.8 17.2 303.9 10.2 298.1C3.4 292.3 0 284 0 273.2C0 262.4 3.6 253.6 10.8 246.8C18 239.8 27.3 236.3 38.7 236.3C40.9 236.3 44 236.5 48 236.9L52.2 198.8C43.4 201.6 29.8 205.2 11.4 209.6V187.1C26.4 183.7 40.8 179.9 54.6 175.7L60.6 126.8C64.8 93.4 81.8 76.7 111.6 76.7C123.4 76.7 132.8 80 139.8 86.6C147 93 150.6 102.1 150.6 113.9C150.6 142.3 132.3 165.2 95.7 182.6L86.7 253.4L86.4 256.4C101.2 269.6 111.1 277.1 116.1 278.9ZM128.1 116.3C128.1 107.9 124.6 103.7 117.6 103.7C109.2 103.7 103.9 113.6 101.7 133.4L98.7 157.1C118.3 145.5 128.1 131.9 128.1 116.3ZM22.8 271.1C22.8 277.1 26.2 280.1 33 280.1C39.6 280.1 43.7 274.2 45.3 262.4C41.5 260.8 37.9 260 34.5 260C31.3 260 28.5 261.1 26.1 263.3C23.9 265.5 22.8 268.1 22.8 271.1ZM282.86 163.7C274.66 228.5 270.56 263 270.56 267.2C270.56 275.2 273.46 279.2 279.26 279.2C284.46 279.2 290.06 275.7 296.06 268.7C302.26 261.5 307.16 250.8 310.76 236.6C317.36 243.8 321.36 249.4 322.76 253.4C318.16 272.8 310.86 286.5 300.86 294.5C290.86 302.5 280.56 306.5 269.96 306.5C252.56 306.5 240.86 299.8 234.86 286.4C224.46 299.8 210.56 306.5 193.16 306.5C178.76 306.5 167.66 302.9 159.86 295.7C152.06 288.5 148.16 279.1 148.16 267.5C148.16 264.7 148.66 259.8 149.66 252.8C154.26 215.6 157.76 186 160.16 164C166.36 161.8 172.06 160.7 177.26 160.7C182.46 160.7 186.36 160.9 188.96 161.3C191.56 161.7 194.06 163.2 196.46 165.8C198.86 168.4 200.06 172.1 200.06 176.9L190.16 253.4C189.76 255.8 189.56 258 189.56 260C189.56 271.8 194.96 277.7 205.76 277.7C215.76 277.7 224.06 272.8 230.66 263C230.66 260.8 230.86 257.3 231.26 252.5L241.16 172.7C242.56 169.3 245.56 166.5 250.16 164.3C254.76 161.9 260.46 160.7 267.26 160.7C274.26 160.7 279.46 161.7 282.86 163.7ZM385.711 305L397.111 205.4C397.111 199.8 395.711 195.2 392.911 191.6C390.311 187.8 385.611 185.9 378.811 185.9C372.011 185.9 366.411 189.2 362.011 195.8C357.611 202.2 354.811 209 353.611 216.2C346.611 266 342.711 295.6 341.911 305H301.711L318.211 164C326.611 161.8 333.011 160.7 337.411 160.7C350.011 160.7 356.911 164.9 358.111 173.3C367.911 164.9 378.611 160.7 390.211 160.7C413.411 160.7 428.211 167.6 434.611 181.4C444.411 167.4 458.411 160.4 476.611 160.4C490.011 160.4 500.611 163.9 508.411 170.9C516.211 177.7 520.111 186.3 520.111 196.7C520.111 199.7 519.511 205 518.311 212.6C513.711 242.6 511.411 260.2 511.411 265.4C511.411 274.8 514.511 279.5 520.711 279.5C525.911 279.5 531.411 276.1 537.211 269.3C543.211 262.3 548.011 251.6 551.611 237.2C558.411 244.4 562.511 250.1 563.911 254.3C553.511 289.1 535.111 306.5 508.711 306.5C496.311 306.5 487.111 302.7 481.111 295.1C475.111 287.5 472.111 279.5 472.111 271.1L479.311 204.8C479.311 199.4 477.911 194.9 475.111 191.3C472.311 187.7 467.811 185.9 461.611 185.9C455.611 185.9 450.311 188.2 445.711 192.8C441.111 197.4 437.911 203.3 436.111 210.5C430.111 261.3 426.211 292.8 424.411 305H385.711ZM565.024 84.2C569.624 79.4 575.224 77 581.824 77C588.424 77 594.024 79.4 598.624 84.2C603.424 88.8 605.824 94.4 605.824 101C605.824 107.6 603.424 113.2 598.624 117.8C594.024 122.4 588.424 124.7 581.824 124.7C575.224 124.7 569.624 122.4 565.024 117.8C560.424 113.2 558.124 107.6 558.124 101C558.124 94.4 560.424 88.8 565.024 84.2ZM552.724 172.1C554.724 168.5 558.524 165.8 564.124 164C569.724 162 575.224 161 580.624 161C586.224 161 591.124 161.7 595.324 163.1C587.524 223.3 583.624 253.7 583.624 254.3C582.624 258.3 582.124 261.7 582.124 264.5C582.124 267.1 582.324 269.4 582.724 271.4C583.524 276.6 587.124 279.2 593.524 279.2C600.124 279.2 606.124 275 611.524 266.6C617.124 258 621.324 248.3 624.124 237.5C625.524 238.3 627.724 240.7 630.724 244.7C633.724 248.7 635.524 251.7 636.124 253.7C632.124 269.7 625.324 282.6 615.724 292.4C606.124 302.2 594.624 307.1 581.224 307.1C567.824 307.1 557.824 303.8 551.224 297.2C544.824 290.6 541.624 282.1 541.624 271.7C541.624 269.5 541.724 267.2 541.924 264.8L552.724 172.1ZM697.158 271.4L704.358 204.5C704.358 199.1 702.958 194.6 700.158 191C697.358 187.4 692.658 185.6 686.058 185.6C679.658 185.6 674.158 188.5 669.558 194.3C665.158 199.9 662.358 207 661.158 215.6C653.958 270.4 650.158 300.2 649.758 305H609.258L625.758 163.7C634.158 161.5 640.558 160.4 644.958 160.4C658.358 160.4 665.358 165.3 665.958 175.1C675.758 165.5 687.458 160.7 701.058 160.7C714.858 160.7 725.658 164.1 733.458 170.9C741.258 177.7 745.158 186.3 745.158 196.7C745.158 199.5 744.558 204.8 743.358 212.6C738.758 243 736.458 260.7 736.458 265.7C736.458 274.9 739.558 279.5 745.758 279.5C759.358 279.5 769.658 265.3 776.658 236.9C783.458 244.1 787.558 249.8 788.958 254C778.358 289.2 759.958 306.8 733.758 306.8C721.358 306.8 712.158 303 706.158 295.4C700.158 287.8 697.158 279.8 697.158 271.4ZM900.724 306.5C882.324 306.5 870.124 300.1 864.124 287.3C853.724 300.3 840.324 306.8 823.924 306.8C807.724 306.8 794.024 301.3 782.824 290.3C771.824 279.3 766.324 264.8 766.324 246.8C766.324 220.6 774.024 199.7 789.424 184.1C804.824 168.5 824.324 160.7 847.924 160.7C848.524 160.7 849.124 160.7 849.724 160.7C859.724 160.7 868.924 162.4 877.324 165.8C882.724 162.4 889.224 160.7 896.824 160.7C904.624 160.7 910.224 161.7 913.624 163.7C911.824 178.5 909.924 193.1 907.924 207.5C905.924 221.7 904.524 231.8 903.724 237.8C901.924 251.4 901.024 261.2 901.024 267.2C901.024 275.2 904.224 279.2 910.624 279.2C915.624 279.2 920.924 275.9 926.524 269.3C932.124 262.5 937.024 251.9 941.224 237.5C947.024 242.7 951.024 248.5 953.224 254.9C947.424 273.9 939.624 287.3 929.824 295.1C920.024 302.7 910.324 306.5 900.724 306.5ZM852.424 184.1C839.624 184.1 829.424 189 821.824 198.8C814.424 208.4 810.024 222.8 808.624 242C808.424 243.8 808.324 245.5 808.324 247.1C808.324 256.9 810.624 264.7 815.224 270.5C820.024 276.3 826.124 279.2 833.524 279.2C846.124 279.2 855.624 270.3 862.024 252.5L869.224 187.7C863.424 185.3 857.824 184.1 852.424 184.1Z" fill="#5D56F1"/>
<mask id="mask0_552_3942" style="mask-type:alpha" maskUnits="userSpaceOnUse" x="0" y="76" width="954" height="232">
<path d="M116.1 278.9C118.3 279.7 120.7 280.1 123.3 280.1C126.1 280.1 128.7 279.8 131.1 279.2C133.7 278.6 136 277.2 138 275C140.2 272.6 141.9 270.7 143.1 269.3C144.3 267.9 145.8 264.8 147.6 260C149.8 254.4 152.5 246.5 155.7 236.3C164.1 244.1 169.1 250 170.7 254C161.1 289.2 144.2 306.8 120 306.8C108.6 306.8 94.1 299.4 76.5 284.6C67.3 299.4 53 306.8 33.6 306.8C25 306.8 17.2 303.9 10.2 298.1C3.4 292.3 0 284 0 273.2C0 262.4 3.6 253.6 10.8 246.8C18 239.8 27.3 236.3 38.7 236.3C40.9 236.3 44 236.5 48 236.9L52.2 198.8C43.4 201.6 29.8 205.2 11.4 209.6V187.1C26.4 183.7 40.8 179.9 54.6 175.7L60.6 126.8C64.8 93.4 81.8 76.7 111.6 76.7C123.4 76.7 132.8 80 139.8 86.6C147 93 150.6 102.1 150.6 113.9C150.6 142.3 132.3 165.2 95.7 182.6L86.7 253.4L86.4 256.4C101.2 269.6 111.1 277.1 116.1 278.9ZM128.1 116.3C128.1 107.9 124.6 103.7 117.6 103.7C109.2 103.7 103.9 113.6 101.7 133.4L98.7 157.1C118.3 145.5 128.1 131.9 128.1 116.3ZM22.8 271.1C22.8 277.1 26.2 280.1 33 280.1C39.6 280.1 43.7 274.2 45.3 262.4C41.5 260.8 37.9 260 34.5 260C31.3 260 28.5 261.1 26.1 263.3C23.9 265.5 22.8 268.1 22.8 271.1ZM282.86 163.7C274.66 228.5 270.56 263 270.56 267.2C270.56 275.2 273.46 279.2 279.26 279.2C284.46 279.2 290.06 275.7 296.06 268.7C302.26 261.5 307.16 250.8 310.76 236.6C317.36 243.8 321.36 249.4 322.76 253.4C318.16 272.8 310.86 286.5 300.86 294.5C290.86 302.5 280.56 306.5 269.96 306.5C252.56 306.5 240.86 299.8 234.86 286.4C224.46 299.8 210.56 306.5 193.16 306.5C178.76 306.5 167.66 302.9 159.86 295.7C152.06 288.5 148.16 279.1 148.16 267.5C148.16 264.7 148.66 259.8 149.66 252.8C154.26 215.6 157.76 186 160.16 164C166.36 161.8 172.06 160.7 177.26 160.7C182.46 160.7 186.36 160.9 188.96 161.3C191.56 161.7 194.06 163.2 196.46 165.8C198.86 168.4 200.06 172.1 200.06 176.9L190.16 253.4C189.76 255.8 189.56 258 189.56 260C189.56 271.8 194.96 277.7 205.76 277.7C215.76 277.7 224.06 272.8 230.66 263C230.66 260.8 230.86 257.3 231.26 252.5L241.16 172.7C242.56 169.3 245.56 166.5 250.16 164.3C254.76 161.9 260.46 160.7 267.26 160.7C274.26 160.7 279.46 161.7 282.86 163.7ZM385.711 305L397.111 205.4C397.111 199.8 395.711 195.2 392.911 191.6C390.311 187.8 385.611 185.9 378.811 185.9C372.011 185.9 366.411 189.2 362.011 195.8C357.611 202.2 354.811 209 353.611 216.2C346.611 266 342.711 295.6 341.911 305H301.711L318.211 164C326.611 161.8 333.011 160.7 337.411 160.7C350.011 160.7 356.911 164.9 358.111 173.3C367.911 164.9 378.611 160.7 390.211 160.7C413.411 160.7 428.211 167.6 434.611 181.4C444.411 167.4 458.411 160.4 476.611 160.4C490.011 160.4 500.611 163.9 508.411 170.9C516.211 177.7 520.111 186.3 520.111 196.7C520.111 199.7 519.511 205 518.311 212.6C513.711 242.6 511.411 260.2 511.411 265.4C511.411 274.8 514.511 279.5 520.711 279.5C525.911 279.5 531.411 276.1 537.211 269.3C543.211 262.3 548.011 251.6 551.611 237.2C558.411 244.4 562.511 250.1 563.911 254.3C553.511 289.1 535.111 306.5 508.711 306.5C496.311 306.5 487.111 302.7 481.111 295.1C475.111 287.5 472.111 279.5 472.111 271.1L479.311 204.8C479.311 199.4 477.911 194.9 475.111 191.3C472.311 187.7 467.811 185.9 461.611 185.9C455.611 185.9 450.311 188.2 445.711 192.8C441.111 197.4 437.911 203.3 436.111 210.5C430.111 261.3 426.211 292.8 424.411 305H385.711ZM565.024 84.2C569.624 79.4 575.224 77 581.824 77C588.424 77 594.024 79.4 598.624 84.2C603.424 88.8 605.824 94.4 605.824 101C605.824 107.6 603.424 113.2 598.624 117.8C594.024 122.4 588.424 124.7 581.824 124.7C575.224 124.7 569.624 122.4 565.024 117.8C560.424 113.2 558.124 107.6 558.124 101C558.124 94.4 560.424 88.8 565.024 84.2ZM552.724 172.1C554.724 168.5 558.524 165.8 564.124 164C569.724 162 575.224 161 580.624 161C586.224 161 591.124 161.7 595.324 163.1C587.524 223.3 583.624 253.7 583.624 254.3C582.624 258.3 582.124 261.7 582.124 264.5C582.124 267.1 582.324 269.4 582.724 271.4C583.524 276.6 587.124 279.2 593.524 279.2C600.124 279.2 606.124 275 611.524 266.6C617.124 258 621.324 248.3 624.124 237.5C625.524 238.3 627.724 240.7 630.724 244.7C633.724 248.7 635.524 251.7 636.124 253.7C632.124 269.7 625.324 282.6 615.724 292.4C606.124 302.2 594.624 307.1 581.224 307.1C567.824 307.1 557.824 303.8 551.224 297.2C544.824 290.6 541.624 282.1 541.624 271.7C541.624 269.5 541.724 267.2 541.924 264.8L552.724 172.1ZM697.158 271.4L704.358 204.5C704.358 199.1 702.958 194.6 700.158 191C697.358 187.4 692.658 185.6 686.058 185.6C679.658 185.6 674.158 188.5 669.558 194.3C665.158 199.9 662.358 207 661.158 215.6C653.958 270.4 650.158 300.2 649.758 305H609.258L625.758 163.7C634.158 161.5 640.558 160.4 644.958 160.4C658.358 160.4 665.358 165.3 665.958 175.1C675.758 165.5 687.458 160.7 701.058 160.7C714.858 160.7 725.658 164.1 733.458 170.9C741.258 177.7 745.158 186.3 745.158 196.7C745.158 199.5 744.558 204.8 743.358 212.6C738.758 243 736.458 260.7 736.458 265.7C736.458 274.9 739.558 279.5 745.758 279.5C759.358 279.5 769.658 265.3 776.658 236.9C783.458 244.1 787.558 249.8 788.958 254C778.358 289.2 759.958 306.8 733.758 306.8C721.358 306.8 712.158 303 706.158 295.4C700.158 287.8 697.158 279.8 697.158 271.4ZM900.724 306.5C882.324 306.5 870.124 300.1 864.124 287.3C853.724 300.3 840.324 306.8 823.924 306.8C807.724 306.8 794.024 301.3 782.824 290.3C771.824 279.3 766.324 264.8 766.324 246.8C766.324 220.6 774.024 199.7 789.424 184.1C804.824 168.5 824.324 160.7 847.924 160.7C848.524 160.7 849.124 160.7 849.724 160.7C859.724 160.7 868.924 162.4 877.324 165.8C882.724 162.4 889.224 160.7 896.824 160.7C904.624 160.7 910.224 161.7 913.624 163.7C911.824 178.5 909.924 193.1 907.924 207.5C905.924 221.7 904.524 231.8 903.724 237.8C901.924 251.4 901.024 261.2 901.024 267.2C901.024 275.2 904.224 279.2 910.624 279.2C915.624 279.2 920.924 275.9 926.524 269.3C932.124 262.5 937.024 251.9 941.224 237.5C947.024 242.7 951.024 248.5 953.224 254.9C947.424 273.9 939.624 287.3 929.824 295.1C920.024 302.7 910.324 306.5 900.724 306.5ZM852.424 184.1C839.624 184.1 829.424 189 821.824 198.8C814.424 208.4 810.024 222.8 808.624 242C808.424 243.8 808.324 245.5 808.324 247.1C808.324 256.9 810.624 264.7 815.224 270.5C820.024 276.3 826.124 279.2 833.524 279.2C846.124 279.2 855.624 270.3 862.024 252.5L869.224 187.7C863.424 185.3 857.824 184.1 852.424 184.1Z" fill="#5D56F1"/>
</mask>
<g mask="url(#mask0_552_3942)">
<path d="M-28.5 81V335H461L-28.5 81Z" fill="#9C97FA" stroke="#9C97FA"/>
</g>
</svg>
