<svg width="115" height="25" viewBox="0 0 115 25" fill="none" xmlns="http://www.w3.org/2000/svg">
<path d="M0.77 24.06V0.329999H5.69V19.95H15.65V24.06H0.77ZM25.8819 24.48C19.7319 24.48 16.7919 20.85 16.7919 15.27V0.329999H21.7419V15.06C21.7419 18.6 23.0319 20.34 25.8819 20.34C28.7019 20.34 30.0219 18.6 30.0219 15.06V0.329999H34.9419V15.27C34.9419 20.85 32.0019 24.48 25.8819 24.48ZM52.4886 24.06H48.4086L43.1286 10.23V24.06H38.3286V0.329999H43.3386L50.4486 18.93L57.5586 0.329999H62.5686V24.06H57.7686V10.23L52.4886 24.06ZM71.022 0.329999V24.06H66.102V0.329999H71.022ZM86.9895 24.06L79.4595 8.85V24.06H74.5395V0.329999H79.5195L87.0495 15.57V0.329999H91.9995V24.06H86.9895ZM114.655 24.06H109.615L108.325 19.5H100.345L99.0554 24.06H94.0154L101.605 0.329999H107.065L114.655 24.06ZM104.335 5.4L101.455 15.48H107.185L104.335 5.4Z" fill="#5D56F1"/>
</svg>
